<svg width="20" height="20" viewBox="0 0 20 20" fill="none" xmlns="http://www.w3.org/2000/svg">
<path d="M17.3167 10C17.3167 8.11711 17.3153 6.76496 17.1771 5.73633C17.0411 4.72519 16.7827 4.11659 16.3333 3.66699C15.8837 3.21736 15.2744 2.95824 14.263 2.82227C13.2345 2.68403 11.8828 2.68262 10.0003 2.68262C8.11744 2.68262 6.76526 2.68399 5.73663 2.82227C4.72526 2.95824 4.11693 3.21737 3.6673 3.66699C3.21768 4.11662 2.95855 4.72495 2.82257 5.73633C2.68429 6.76495 2.68292 8.11713 2.68292 10C2.68292 11.8825 2.68434 13.2342 2.82257 14.2627C2.95855 15.2741 3.21767 15.8834 3.6673 16.333C4.11689 16.7824 4.72549 17.0408 5.73663 17.1768C6.76526 17.315 8.11741 17.3164 10.0003 17.3164C11.8828 17.3164 13.2345 17.315 14.263 17.1768C15.2744 17.0408 15.8837 16.7826 16.3333 16.333C16.7829 15.8834 17.0411 15.2741 17.1771 14.2627C17.3153 13.2342 17.3167 11.8825 17.3167 10ZM5.23371 15V13.333C5.23371 13.0016 5.50194 12.7334 5.83331 12.7334C6.16469 12.7334 6.43292 13.0016 6.43292 13.333V15C6.43275 15.3312 6.16458 15.5996 5.83331 15.5996C5.50205 15.5996 5.23388 15.3312 5.23371 15ZM9.39972 15V12.5C9.39972 12.1686 9.66894 11.8994 10.0003 11.8994C10.3315 11.8996 10.5999 12.1687 10.5999 12.5V15C10.5997 15.3311 10.3314 15.5994 10.0003 15.5996C9.66904 15.5996 9.3999 15.3312 9.39972 15ZM13.5667 15V10.833C13.5667 10.5017 13.8351 10.2336 14.1663 10.2334C14.4977 10.2334 14.7669 10.5016 14.7669 10.833V15C14.7667 15.3312 14.4976 15.5996 14.1663 15.5996C13.8352 15.5994 13.5669 15.3311 13.5667 15ZM18.5169 10C18.5169 11.8488 18.518 13.2958 18.3665 14.4229C18.2127 15.5673 17.8917 16.4719 17.1819 17.1816C16.4722 17.8914 15.5676 18.2124 14.4232 18.3662C13.2961 18.5177 11.8491 18.5166 10.0003 18.5166C8.15129 18.5166 6.70366 18.5178 5.57648 18.3662C4.43228 18.2124 3.52834 17.8911 2.81867 17.1816C2.10893 16.4719 1.78698 15.5673 1.63312 14.4229C1.48161 13.2958 1.48371 11.8487 1.48371 10C1.48371 8.15099 1.48157 6.70336 1.63312 5.57617C1.78699 4.43179 2.10895 3.52808 2.81867 2.81836C3.52839 2.10864 4.43209 1.78669 5.57648 1.63281C6.70366 1.48127 8.15129 1.4834 10.0003 1.4834C11.849 1.4834 13.2961 1.4813 14.4232 1.63281C15.5676 1.78668 16.4722 2.10862 17.1819 2.81836C17.8914 3.52803 18.2127 4.43198 18.3665 5.57617C18.5181 6.70335 18.5169 8.15099 18.5169 10Z" fill="currentColor"/>
<path d="M13.1478 4.39312C13.4111 4.35972 13.6591 4.44517 13.8304 4.54058C13.9776 4.62258 14.1646 4.76566 14.2787 4.98198L14.3226 5.07866L14.3363 5.11968L14.7494 6.48589L14.7728 6.60503C14.7983 6.88281 14.6264 7.14997 14.349 7.23394C14.0319 7.32974 13.6969 7.14964 13.6009 6.83257L13.4544 6.35112C11.0892 9.74902 7.28914 10.185 5.34702 10.1783L4.97397 10.1714L4.85288 10.1548C4.58161 10.0897 4.38424 9.84102 4.39389 9.55132C4.40511 9.22045 4.68216 8.96143 5.01303 8.97222L5.3646 8.97808C7.15642 8.98304 10.4001 8.57354 12.4271 5.7232L11.7552 5.83257L11.6605 5.2398L11.5648 4.648L13.1283 4.39605L13.1478 4.39312ZM11.7552 5.83257C11.4282 5.88497 11.1204 5.66247 11.0677 5.3355C11.0151 5.0084 11.2377 4.70074 11.5648 4.648L11.7552 5.83257Z" fill="currentColor"/>
</svg>

