<svg width="20" height="20" viewBox="0 0 20 20" fill="none" xmlns="http://www.w3.org/2000/svg">
<path d="M6.4837 15C6.4837 14.6686 6.75194 14.4004 7.08331 14.4004C7.41468 14.4004 7.68292 14.6686 7.68292 15C7.68292 16.2795 8.72084 17.3164 10.0003 17.3164C11.2796 17.3162 12.3167 16.2794 12.3167 15C12.3167 14.6687 12.5851 14.4006 12.9163 14.4004C13.2477 14.4004 13.5169 14.6686 13.5169 15C13.5169 16.9421 11.9424 18.5164 10.0003 18.5166C8.0581 18.5166 6.4837 16.9422 6.4837 15Z" fill="currentColor"/>
<path d="M15.2334 7.91602C15.2332 5.02587 12.8902 2.68262 10 2.68262C7.10982 2.68262 4.76678 5.02588 4.7666 7.91602V10.2129C4.76659 11.035 4.43976 11.8239 3.8584 12.4053L3.35645 12.9072C3.19251 13.0712 3.09966 13.2937 3.09961 13.5254C3.09961 14.008 3.49112 14.3992 3.97363 14.3994H16.0264C16.5089 14.3992 16.9004 14.008 16.9004 13.5254C16.9003 13.2937 16.8075 13.0712 16.6436 12.9072L16.1416 12.4053C15.5603 11.8239 15.2334 11.035 15.2334 10.2129V7.91602ZM16.4336 10.2129C16.4336 10.7167 16.6339 11.2003 16.9902 11.5566L17.4922 12.0586C17.881 12.4475 18.0996 12.9754 18.0996 13.5254C18.0996 14.6707 17.1716 15.5994 16.0264 15.5996H3.97363C2.82834 15.5994 1.90039 14.6707 1.90039 13.5254C1.90044 12.9754 2.11896 12.4475 2.50781 12.0586L3.00977 11.5566C3.36607 11.2003 3.56639 10.7167 3.56641 10.2129V7.91602C3.56658 4.36314 6.44708 1.4834 10 1.4834C13.5529 1.4834 16.4334 4.36313 16.4336 7.91602V10.2129Z" fill="currentColor"/>
</svg>

