<svg width="21" height="20" viewBox="0 0 21 20" fill="none" xmlns="http://www.w3.org/2000/svg">
<path d="M10.5001 1.45801C11.1561 1.45801 11.7345 1.6828 12.3433 2.04964C12.9317 2.40413 13.6029 2.92613 14.4388 3.57633L14.4649 3.59668L16.1316 4.89307L16.8584 5.46272C17.519 5.99354 17.9833 6.43318 18.2646 7.00814L18.3305 7.15381C18.6378 7.88672 18.6251 8.73484 18.6251 9.99076V12.131C18.6251 13.4657 18.6251 14.5312 18.5128 15.3667C18.4039 16.1764 18.1805 16.8522 17.6892 17.3972L17.5875 17.5038C17.0249 18.0663 16.3139 18.3129 15.4504 18.429C14.6149 18.5413 13.5493 18.5413 12.2148 18.5413H8.78539C7.45073 18.5413 6.38525 18.5413 5.54972 18.429C4.73999 18.3202 4.0642 18.0968 3.51927 17.6055L3.41267 17.5038C2.85008 16.9412 2.60347 16.2303 2.48737 15.3667C2.40212 14.7325 2.38166 13.966 2.3767 13.0498L2.37507 12.083V9.99076C2.37507 8.65109 2.36058 7.77491 2.73559 7.00814C3.11067 6.24154 3.8112 5.71546 4.86857 4.89307L6.53523 3.59668L7.1407 3.12712C7.71737 2.68311 8.21094 2.3183 8.65681 2.04964C9.26568 1.68279 9.8441 1.45802 10.5001 1.45801ZM13.6576 13.6544C13.3926 13.3141 12.9159 13.2355 12.5582 13.4599L12.4882 13.5088C11.9709 13.9113 11.2764 14.1663 10.5001 14.1663C9.82068 14.1663 9.20385 13.9714 8.71378 13.6528L8.51196 13.5088L8.44197 13.4599C8.08418 13.2357 7.60752 13.314 7.34253 13.6544C7.07755 13.995 7.11834 14.4768 7.4239 14.7686L7.48819 14.8239L7.64363 14.9394C8.43555 15.5036 9.43068 15.8329 10.5001 15.833C11.6406 15.833 12.6968 15.4584 13.5119 14.8239L13.5763 14.7686C13.8819 14.4768 13.9228 13.9951 13.6576 13.6544Z" fill="currentColor"/>
</svg>

