<svg width="21" height="20" viewBox="0 0 21 20" fill="none" xmlns="http://www.w3.org/2000/svg">
<path d="M17.3487 9.99121C17.3487 8.53138 17.3336 7.99926 17.1124 7.54688C16.8911 7.09452 16.4803 6.75639 15.3282 5.86035L13.6612 4.56348C12.7896 3.88556 12.1767 3.4104 11.6593 3.09863C11.1557 2.79524 10.7992 2.68262 10.4483 2.68262C10.0974 2.68262 9.74094 2.79524 9.23738 3.09863C8.71996 3.4104 8.10704 3.88556 7.23543 4.56348L5.56843 5.86035C4.41638 6.7564 4.00549 7.09453 3.78426 7.54688C3.56301 7.99926 3.54793 8.53139 3.54793 9.99121V12.083C3.54793 13.4747 3.54937 14.4582 3.64949 15.2031C3.74731 15.9307 3.92966 16.3406 4.22664 16.6377C4.52371 16.9348 4.9335 17.117 5.66121 17.2148C6.40613 17.315 7.38961 17.3164 8.78133 17.3164H12.1153C13.507 17.3164 14.4905 17.315 15.2354 17.2148C15.9631 17.117 16.3729 16.9348 16.67 16.6377C16.967 16.3406 17.1493 15.9307 17.2471 15.2031C17.3473 14.4582 17.3487 13.4747 17.3487 12.083V9.99121ZM18.5479 12.083C18.5479 13.4409 18.55 14.5198 18.4366 15.3633C18.3209 16.224 18.0757 16.9291 17.5186 17.4863C16.9615 18.0434 16.2562 18.2886 15.3956 18.4043C14.5521 18.5177 13.4731 18.5166 12.1153 18.5166H8.78133C7.42351 18.5166 6.34451 18.5177 5.50105 18.4043C4.64039 18.2886 3.93515 18.0435 3.37801 17.4863C2.82093 16.9291 2.57576 16.224 2.46004 15.3633C2.34664 14.5198 2.34871 13.4409 2.34871 12.083V9.99121C2.34871 8.6489 2.33422 7.77994 2.70613 7.01953C3.07803 6.25913 3.77263 5.73712 4.83211 4.91309L6.4991 3.61621C7.34759 2.95628 8.02542 2.42848 8.61824 2.07129C9.22492 1.70575 9.79852 1.4834 10.4483 1.4834C11.0981 1.4834 11.6717 1.70575 12.2784 2.07129C12.8712 2.42848 13.549 2.95628 14.3975 3.61621L16.0645 4.91309C17.124 5.73714 17.8186 6.25914 18.1905 7.01953C18.5624 7.77994 18.5479 8.6489 18.5479 9.99121V12.083Z" fill="currentColor"/>
<path d="M12.5804 13.6927C12.8418 13.4894 13.2187 13.5368 13.4222 13.7981C13.6254 14.0596 13.578 14.4365 13.3167 14.6399C12.5432 15.2419 11.5379 15.5999 10.4485 15.5999C9.42692 15.5999 8.47965 15.2848 7.72781 14.7493L7.58035 14.6399L7.49246 14.5559C7.31095 14.344 7.29698 14.027 7.47489 13.7981C7.65299 13.5693 7.96403 13.5044 8.21414 13.6282L8.31668 13.6927L8.53543 13.8479C9.06381 14.1914 9.72447 14.3997 10.4485 14.3997C11.276 14.3997 12.0214 14.1278 12.5804 13.6927Z" fill="currentColor"/>
</svg>

