<svg width="20" height="20" viewBox="0 0 20 20" fill="none" xmlns="http://www.w3.org/2000/svg">
<path d="M9.40039 9.46191C9.40044 9.13059 9.66866 8.8623 10 8.8623C10.3313 8.8623 10.5996 9.13059 10.5996 9.46191V17.6455C11.0059 17.5377 11.5322 17.3226 12.4023 16.9551C14.0423 16.2623 15.2103 15.7669 15.9756 15.3076C16.7593 14.8372 16.9004 14.5335 16.9004 14.3008V5.83301C16.9004 5.50164 17.1686 5.2334 17.5 5.2334C17.8314 5.2334 18.0996 5.50164 18.0996 5.83301V14.3008C18.0996 15.2201 17.4299 15.8345 16.5928 16.3369C15.7367 16.8506 14.472 17.3835 12.8691 18.0605C11.6133 18.591 10.8317 18.9326 10 18.9326C9.16825 18.9326 8.38671 18.591 7.13086 18.0605C5.52803 17.3835 4.26326 16.8506 3.40723 16.3369C2.57006 15.8345 1.9004 15.2201 1.90039 14.3008V5.83301C1.90039 5.50164 2.16863 5.2334 2.5 5.2334C2.83137 5.2334 3.09961 5.50164 3.09961 5.83301V14.3008C3.09962 14.5334 3.24067 14.8372 4.02441 15.3076C4.78975 15.7669 5.95774 16.2623 7.59766 16.9551C8.46782 17.3226 8.9941 17.5377 9.40039 17.6455V9.46191Z" fill="currentColor"/>
<path d="M10 1.06738C10.9778 1.06738 11.8728 1.51588 13.3232 2.21777L15.7578 3.39551C16.4074 3.70986 16.9565 3.97383 17.335 4.22949C17.7055 4.47976 18.0996 4.84515 18.0996 5.41699C18.0996 5.98884 17.7055 6.35422 17.335 6.60449C16.9565 6.86015 16.4074 7.12413 15.7578 7.43848L13.3232 8.61621C11.8728 9.3181 10.9778 9.7666 10 9.7666C9.02222 9.7666 8.12723 9.3181 6.67676 8.61621L4.24219 7.43848C3.59256 7.12413 3.04354 6.86015 2.66504 6.60449C2.29454 6.35422 1.90039 5.98883 1.90039 5.41699C1.90039 4.84515 2.29454 4.47977 2.66504 4.22949C3.04354 3.97383 3.59256 3.70986 4.24219 3.39551L6.67676 2.21777C8.12723 1.5159 9.02222 1.06738 10 1.06738ZM10 2.2666C9.36161 2.2666 8.75355 2.54571 7.19922 3.29785L4.76562 4.47559C4.07961 4.80754 3.62633 5.02818 3.33691 5.22363C3.18924 5.32338 3.12884 5.38609 3.10645 5.41699C3.12884 5.4479 3.18924 5.5106 3.33691 5.61035C3.62633 5.8058 4.07961 6.02644 4.76562 6.3584L7.19922 7.53613C8.75355 8.28828 9.36161 8.56738 10 8.56738C10.6384 8.56738 11.2464 8.28828 12.8008 7.53613L15.2344 6.3584C15.9204 6.02644 16.3737 5.80581 16.6631 5.61035C16.81 5.5111 16.8699 5.44806 16.8926 5.41699C16.8699 5.38592 16.81 5.32288 16.6631 5.22363C16.3737 5.02818 15.9204 4.80755 15.2344 4.47559L12.8008 3.29785C11.2464 2.54571 10.6384 2.2666 10 2.2666Z" fill="currentColor"/>
<path d="M5 10L6.66667 10.8333" stroke="#475569" stroke-width="1.5" stroke-linecap="round" stroke-linejoin="round"/>
<path d="M14.1666 3.33301L5.83331 7.49967" stroke="#475569" stroke-width="1.5" stroke-linecap="round" stroke-linejoin="round"/>
</svg>

