<svg width="21" height="20" viewBox="0 0 21 20" fill="none" xmlns="http://www.w3.org/2000/svg">
<path d="M7.79761 3.15039C8.6197 3.15039 9.40864 3.47634 9.98999 4.05762L12.5906 6.65918C12.8249 6.8935 12.8249 7.2735 12.5906 7.50781C12.3563 7.74169 11.9772 7.74169 11.7429 7.50781L9.14136 4.90625C8.78507 4.55003 8.30146 4.34961 7.79761 4.34961H2.16675C1.83538 4.34961 1.56714 4.08137 1.56714 3.75C1.56714 3.41863 1.83538 3.15039 2.16675 3.15039H7.79761Z" fill="currentColor"/>
<path d="M4.66675 10.6504C4.99812 10.6504 5.26636 10.9186 5.26636 11.25C5.26636 11.5814 4.99812 11.8496 4.66675 11.8496H2.16675C1.83538 11.8496 1.56714 11.5814 1.56714 11.25C1.56714 10.9186 1.83538 10.6504 2.16675 10.6504H4.66675Z" fill="currentColor"/>
<path d="M7.05334 5.71959C7.32784 5.44527 7.76176 5.42791 8.05627 5.66784L8.11389 5.71959L9.77991 7.38659C10.533 8.13973 10.533 9.36001 9.77991 10.1131C9.02678 10.8663 7.80647 10.8663 7.05334 10.1131L6.26135 9.32116C5.31843 9.85291 4.12229 9.79987 3.21936 9.12292L2.96643 8.93346L2.90784 8.88366C2.62844 8.62604 2.58413 8.19428 2.81702 7.88366C3.05008 7.5729 3.47771 7.49389 3.80334 7.6903L3.86682 7.73327L4.11877 7.92272C4.63168 8.30739 5.35004 8.25591 5.80334 7.8026L5.9176 7.70885C6.03982 7.62748 6.18462 7.58288 6.33362 7.58288C6.53241 7.58296 6.72331 7.66203 6.86389 7.8026L8.11389 9.0526C8.28124 9.21996 8.55202 9.21994 8.71936 9.0526C8.88672 8.88525 8.88672 8.61449 8.71936 8.44713L7.05334 6.78014L7.00159 6.7235C6.76114 6.42892 6.77869 5.99425 7.05334 5.71959Z" fill="currentColor"/>
<path d="M3.91675 12.916V9.16602C3.91693 8.75196 4.25265 8.41602 4.66675 8.41602C5.08086 8.41602 5.41658 8.75196 5.41675 9.16602V12.916C5.41675 13.7229 5.4187 14.2533 5.47144 14.6455C5.52128 15.0159 5.60383 15.15 5.68531 15.2315C5.76682 15.3129 5.9008 15.3955 6.27125 15.4453C6.66346 15.498 7.19307 15.5 7.99976 15.5H15.4998C16.3066 15.5 16.837 15.4981 17.2293 15.4453C17.5997 15.3955 17.7337 15.3129 17.8152 15.2315C17.8967 15.15 17.9792 15.0159 18.0291 14.6455C18.0818 14.2533 18.0837 13.7229 18.0837 12.916V10.416C18.0837 9.60933 18.0818 9.07972 18.0291 8.68751C17.9793 8.31705 17.8966 8.18308 17.8152 8.10157C17.7337 8.02009 17.5997 7.93754 17.2293 7.8877C16.837 7.83496 16.3066 7.83301 15.4998 7.83301H8.41675C8.00254 7.83301 7.66675 7.49723 7.66675 7.08301C7.66675 6.6688 8.00254 6.33301 8.41675 6.33301H15.4998C16.264 6.33301 16.9131 6.33114 17.4285 6.4004C17.9655 6.4726 18.4691 6.63437 18.8757 7.04102C19.2822 7.44755 19.4432 7.9505 19.5154 8.48731C19.5847 9.00269 19.5837 9.6517 19.5837 10.416V12.916C19.5837 13.6803 19.5847 14.3293 19.5154 14.8447C19.4432 15.3818 19.2824 15.8853 18.8757 16.292C18.4691 16.6987 17.9655 16.8594 17.4285 16.9316C16.9131 17.0009 16.2641 17 15.4998 17H7.99976C7.23543 17 6.58643 17.0009 6.07105 16.9316C5.53423 16.8594 5.03129 16.6984 4.62476 16.292C4.21811 15.8853 4.05634 15.3818 3.98414 14.8447C3.91488 14.3293 3.91675 13.6803 3.91675 12.916Z" fill="currentColor"/>
<path d="M12.4587 11.666C12.4586 11.275 12.1409 10.958 11.7498 10.958C11.3588 10.9582 11.0419 11.2751 11.0417 11.666C11.0417 12.0571 11.3587 12.3748 11.7498 12.375C12.141 12.375 12.4587 12.0572 12.4587 11.666ZM13.9587 11.666C13.9587 12.8856 12.9694 13.875 11.7498 13.875C10.5303 13.8748 9.54175 12.8855 9.54175 11.666C9.54192 10.4466 10.5304 9.45818 11.7498 9.45801C12.9693 9.45801 13.9586 10.4465 13.9587 11.666Z" fill="currentColor"/>
</svg>

