<svg width="21" height="20" viewBox="0 0 21 20" fill="none" xmlns="http://www.w3.org/2000/svg">
<path d="M14.0667 7.08398C14.0667 5.11428 12.4699 3.51678 10.5002 3.5166C8.53043 3.5166 6.93286 5.11417 6.93286 7.08398C6.93304 9.05363 8.53054 10.6504 10.5002 10.6504C12.4698 10.6502 14.0665 9.05352 14.0667 7.08398ZM15.2668 7.08398C15.2667 9.71626 13.1325 11.8504 10.5002 11.8506C7.8678 11.8506 5.73382 9.71637 5.73364 7.08398C5.73364 4.45143 7.86769 2.31738 10.5002 2.31738C13.1326 2.31756 15.2668 4.45154 15.2668 7.08398Z" fill="currentColor"/>
<path d="M15.7332 17.083C15.733 14.1929 13.3899 11.8496 10.4998 11.8496C7.60973 11.8498 5.26653 14.193 5.26636 17.083C5.26636 17.4144 4.99812 17.6836 4.66675 17.6836C4.33538 17.6836 4.06714 17.4144 4.06714 17.083C4.06731 13.5302 6.94699 10.6506 10.4998 10.6504C14.0527 10.6504 16.9332 13.5301 16.9333 17.083C16.9333 17.4143 16.665 17.6834 16.3337 17.6836C16.0024 17.6836 15.7332 17.4144 15.7332 17.083Z" fill="currentColor"/>
</svg>
