<svg width="21" height="20" viewBox="0 0 21 20" fill="none" xmlns="http://www.w3.org/2000/svg">
<path d="M1.65381 12.083V8.75C1.65381 7.58927 1.65191 6.65584 1.7544 5.92383C1.8597 5.17193 2.0854 4.54486 2.60108 4.04981C3.11331 3.55807 3.75651 3.34565 4.52783 3.2461C5.28421 3.14852 6.25048 3.15039 7.46143 3.15039H8.32959C8.66096 3.15039 8.93018 3.41863 8.93018 3.75C8.93018 4.08137 8.66096 4.34961 8.32959 4.34961H7.46143C6.21774 4.34961 5.34288 4.35113 4.68115 4.43653C4.0344 4.52 3.68262 4.6747 3.43213 4.91504C3.18509 5.1522 3.02826 5.4803 2.94287 6.08985C2.85471 6.71937 2.85303 7.55384 2.85303 8.75V12.083C2.85303 13.2791 2.85473 14.1137 2.94287 14.7432C3.02826 15.3528 3.18506 15.6808 3.43213 15.918C3.68263 16.1584 4.03427 16.313 4.68115 16.3965C5.34289 16.4819 6.21771 16.4834 7.46143 16.4834H10.9673C12.211 16.4834 13.0858 16.4819 13.7476 16.3965C14.3945 16.313 14.7471 16.1585 14.9976 15.918C15.3176 15.6106 15.4838 15.1524 15.5435 14.1318C15.5628 13.801 15.8465 13.5481 16.1772 13.5674C16.5081 13.5867 16.761 13.8713 16.7417 14.2022C16.6788 15.2775 16.4966 16.1429 15.8286 16.7842C15.3164 17.2759 14.6731 17.4873 13.9019 17.5869C13.1454 17.6846 12.1786 17.6836 10.9673 17.6836H7.46143C6.25046 17.6836 5.28422 17.6845 4.52783 17.5869C3.75668 17.4874 3.11326 17.2757 2.60108 16.7842C2.0855 16.2892 1.85973 15.6619 1.7544 14.9102C1.65187 14.1781 1.65381 13.2439 1.65381 12.083Z" fill="currentColor"/>
<path d="M18.1465 7.5C18.1464 7.40045 18.1057 7.29968 18.0244 7.22168L14.5723 3.90723V5.83398C14.5721 6.16507 14.3037 6.43337 13.9727 6.43359H10.9336C8.84491 6.4338 7.19354 8.05331 7.19336 10V10.2715C7.22009 10.2451 7.24567 10.2168 7.27344 10.1904C8.12874 9.37763 9.47941 8.5674 11.4297 8.56738H13.9727C14.3038 8.5676 14.5723 8.83576 14.5723 9.16699V11.0928L18.0244 7.77832C18.1056 7.70028 18.1465 7.59952 18.1465 7.5ZM19.3467 7.5C19.3467 7.87966 19.2091 8.24229 18.9658 8.52734L18.8555 8.64453L14.9121 12.4297C14.7402 12.5949 14.5119 12.6836 14.2793 12.6836C13.8017 12.6836 13.3721 12.306 13.3721 11.7891V9.7666H11.4297C9.8462 9.76662 8.77881 10.4151 8.09961 11.0605C7.75712 11.3861 7.51271 11.7116 7.35547 11.9541C7.27724 12.0748 7.22185 12.174 7.18652 12.2402C7.16889 12.2733 7.15579 12.2984 7.14844 12.3135C7.14478 12.321 7.14277 12.3266 7.1416 12.3291L7.14062 12.3281C7.02513 12.5865 6.74558 12.7298 6.46875 12.6709C6.19189 12.6119 5.99429 12.367 5.99414 12.084V10C5.99432 7.34489 8.22879 5.23361 10.9336 5.2334H13.3721V3.21191C13.3721 2.69494 13.8018 2.31738 14.2793 2.31738L14.3662 2.32129C14.5681 2.34051 14.7619 2.42616 14.9121 2.57031L18.8555 6.35645C19.1669 6.65553 19.3466 7.06639 19.3467 7.5Z" fill="currentColor"/>
</svg>
